<svg width="124" height="33" viewBox="0 0 124 33" fill="none" xmlns="http://www.w3.org/2000/svg">
<path d="M44.8133 25.3287C43.1517 25.3287 41.6818 24.9361 40.4037 24.1509C39.1256 23.3475 38.1304 22.2155 37.4183 20.7547C36.7062 19.2757 36.3502 17.5229 36.3502 15.4961C36.3502 13.5423 36.7062 11.8168 37.4183 10.3196C38.1487 8.80408 39.1712 7.62636 40.4859 6.78643C41.8188 5.92825 43.3708 5.49916 45.142 5.49916C46.0549 5.49916 46.8857 5.59045 47.6343 5.77305C48.383 5.93738 49.086 6.17475 49.7433 6.48515L48.949 8.67626C48.383 8.40237 47.7987 8.18326 47.1961 8.01893C46.6118 7.8546 45.918 7.77243 45.1146 7.77243C43.946 7.77243 42.8961 8.07371 41.9649 8.67626C41.0519 9.27882 40.3307 10.1461 39.8011 11.2782C39.2716 12.4103 39.0069 13.7797 39.0069 15.3865C39.0069 16.9203 39.2625 18.2623 39.7738 19.4127C40.3033 20.563 41.0245 21.4577 41.9375 22.0968C42.8687 22.7359 43.9277 23.0554 45.1146 23.0554C46.0093 23.0554 46.7853 22.9458 47.4426 22.7267C48.1 22.5076 48.739 22.2246 49.3598 21.8777L50.1541 24.0414C49.4785 24.4066 48.7025 24.717 47.8261 24.9726C46.9679 25.21 45.9636 25.3287 44.8133 25.3287ZM57.5003 25.3287C56.6604 25.3287 55.9026 25.1735 55.227 24.8631C54.5515 24.5344 54.0128 24.014 53.6111 23.3019C53.2277 22.5898 53.0359 21.6677 53.0359 20.5356V4.73227H55.5009V20.2891C55.5009 21.2751 55.7018 22.0055 56.1035 22.4802C56.5234 22.955 57.0986 23.1923 57.829 23.1923C58.1759 23.1923 58.5137 23.1558 58.8424 23.0828C59.1893 22.9915 59.4814 22.8911 59.7188 22.7815L60.3214 24.7809C59.9927 24.927 59.5819 25.0548 59.0889 25.1643C58.6141 25.2739 58.0846 25.3287 57.5003 25.3287ZM68.5121 25.3287C67.1609 25.3287 65.9467 25.0183 64.8694 24.3974C63.7921 23.7584 62.9431 22.8819 62.3222 21.7681C61.7197 20.636 61.4184 19.3396 61.4184 17.8789C61.4184 16.3451 61.7288 15.0213 62.3496 13.9075C62.9704 12.7937 63.8195 11.9355 64.8968 11.333C65.9741 10.7304 67.1792 10.4291 68.5121 10.4291C69.845 10.4291 71.041 10.7304 72.1001 11.333C73.1774 11.9355 74.0264 12.7937 74.6472 13.9075C75.2863 15.0031 75.6058 16.3086 75.6058 17.8241C75.6058 19.3396 75.2954 20.6634 74.6746 21.7955C74.0538 22.9093 73.2047 23.7766 72.1274 24.3974C71.0684 25.0183 69.8633 25.3287 68.5121 25.3287ZM68.5121 23.1376C69.9546 23.1376 71.0775 22.6537 71.8809 21.686C72.6844 20.7 73.0861 19.4309 73.0861 17.8789C73.0861 16.9294 72.8852 16.0621 72.4835 15.277C72.0818 14.4736 71.534 13.8345 70.8402 13.3598C70.1646 12.8668 69.3886 12.6203 68.5121 12.6203C67.0696 12.6203 65.9467 13.095 65.1433 14.0445C64.3399 14.9939 63.9382 16.2538 63.9382 17.8241C63.9382 18.7736 64.139 19.6592 64.5407 20.4808C64.9424 21.2842 65.4811 21.9325 66.1567 22.4255C66.8505 22.9002 67.6357 23.1376 68.5121 23.1376ZM84.9086 25.3287C83.5574 25.3287 82.3706 25.0183 81.3481 24.3974C80.3438 23.7584 79.5678 22.8819 79.02 21.7681C78.4722 20.636 78.1983 19.3396 78.1983 17.8789C78.1983 16.5095 78.4722 15.2587 79.02 14.1266C79.586 12.9946 80.3895 12.0999 81.4302 11.4425C82.471 10.7669 83.6944 10.4291 85.1003 10.4291C85.9037 10.4291 86.6067 10.5022 87.2093 10.6483C87.8301 10.7943 88.4235 11.0043 88.9895 11.2782L88.25 13.3598C87.7388 13.1041 87.2458 12.9215 86.771 12.812C86.3146 12.6842 85.8033 12.6203 85.2373 12.6203C83.9591 12.6203 82.8818 13.0859 82.0054 14.0171C81.1472 14.93 80.7181 16.1991 80.7181 17.8241C80.7181 18.8101 80.9007 19.7048 81.2659 20.5082C81.6311 21.3116 82.1332 21.9507 82.7723 22.4255C83.4296 22.9002 84.1965 23.1376 85.0729 23.1376C85.7668 23.1376 86.3602 23.0645 86.8532 22.9184C87.3462 22.7541 87.8757 22.5259 88.4418 22.2337L89.2087 24.3153C88.6426 24.6257 88.0035 24.8722 87.2914 25.0548C86.5976 25.2374 85.8033 25.3287 84.9086 25.3287ZM102.182 25.2739L94.8146 17.6872V25H92.3496V4.73227H94.8146V16.3177L101.251 10.4839L102.675 12.0451L97.17 16.9203L103.88 23.6306L102.182 25.2739ZM106.886 25V5.82782H109.488V25H106.886ZM119.413 25.3287C118.044 25.3287 116.958 24.8813 116.154 23.9866C115.369 23.0737 114.976 21.7772 114.976 20.0974V13.4145H112.511V11.2782H115.031L115.552 6.78643H117.441V11.2782H121.385V13.4145H117.441V20.2891C117.441 21.3482 117.661 22.0877 118.099 22.5076C118.555 22.9276 119.094 23.1376 119.715 23.1376C120.171 23.1376 120.6 23.0645 121.002 22.9184C121.422 22.7724 121.805 22.5989 122.152 22.3981L122.837 24.3701C122.472 24.5892 121.979 24.7991 121.358 25C120.737 25.2191 120.089 25.3287 119.413 25.3287Z" fill="black"/>
<path d="M27.0187 22.5396C28.6076 23.4627 29.1694 25.53 27.9387 26.8945C26.3288 28.6794 24.3282 30.0905 22.0756 31.0071C18.7887 32.3447 15.1508 32.5539 11.7322 31.602C8.3136 30.6501 5.30739 28.591 3.18466 25.7472C1.06194 22.9034 -0.0573268 19.4357 0.0022604 15.8876C0.0618476 12.3394 1.29692 8.91127 3.51394 6.14037C5.73095 3.36948 8.80462 1.41241 12.2533 0.57587C15.7019 -0.260676 19.3307 0.0705725 22.5709 1.51771C24.7914 2.50946 26.7435 3.9869 28.2925 5.82488C29.4767 7.22998 28.8458 9.27724 27.2269 10.1465V10.1465C25.6079 11.0157 23.6173 10.3425 22.2398 9.12635C21.5325 8.50189 20.7304 7.98356 19.8572 7.5936C17.9619 6.7471 15.8392 6.55333 13.8219 7.04267C11.8046 7.53201 10.0067 8.6768 8.70983 10.2976C7.41298 11.9185 6.69052 13.9238 6.65566 15.9993C6.62081 18.0748 7.27552 20.1032 8.51722 21.7667C9.75891 23.4302 11.5174 24.6347 13.5171 25.1915C15.5169 25.7483 17.6448 25.6259 19.5675 24.8435C20.4533 24.4831 21.2724 23.992 22.0003 23.3917C23.4178 22.2224 25.4299 21.6165 27.0187 22.5396V22.5396Z" fill="#5932EA"/>
<path d="M20.6813 18.8579C21.6533 19.4227 21.9986 20.6965 21.1913 21.479C20.5136 22.136 19.712 22.6619 18.8261 23.0223C17.3066 23.6407 15.6248 23.7374 14.0444 23.2973C12.464 22.8573 11.0742 21.9053 10.0929 20.5907C9.11154 19.276 8.5941 17.6729 8.62165 16.0326C8.6492 14.3923 9.22017 12.8074 10.2451 11.5265C11.27 10.2455 12.691 9.34074 14.2853 8.95401C15.8796 8.56727 17.5571 8.72041 19.0551 9.38941C19.9284 9.77944 20.7118 10.3319 21.3671 11.0113C22.1476 11.8204 21.7598 13.082 20.7693 13.6138V13.6138C19.7789 14.1456 18.5448 13.6844 17.5418 13.1766C17.4935 13.1521 17.4445 13.1288 17.3949 13.1066C16.7197 12.8051 15.9636 12.736 15.245 12.9104C14.5264 13.0847 13.8859 13.4925 13.4239 14.0699C12.9619 14.6473 12.7046 15.3616 12.6922 16.1009C12.6797 16.8403 12.913 17.5629 13.3553 18.1554C13.7976 18.748 14.424 19.1771 15.1364 19.3755C15.8488 19.5738 16.6068 19.5302 17.2917 19.2515C17.3421 19.231 17.3918 19.2093 17.4409 19.1865C18.4603 18.7126 19.7092 18.2932 20.6813 18.8579V18.8579Z" fill="#16C098"/>
</svg>
